<svg width="20" height="19" viewBox="0 0 20 19" fill="none" xmlns="http://www.w3.org/2000/svg">
<path opacity="0.2" d="M3.33333 11.875C4.71404 11.875 5.83333 10.8117 5.83333 9.5C5.83333 8.18832 4.71404 7.125 3.33333 7.125C1.95262 7.125 0.833332 8.18832 0.833332 9.5C0.833332 10.8117 1.95262 11.875 3.33333 11.875Z" fill="black"/>
<path opacity="0.2" d="M10 11.875C11.3807 11.875 12.5 10.8117 12.5 9.5C12.5 8.18832 11.3807 7.125 10 7.125C8.61929 7.125 7.5 8.18832 7.5 9.5C7.5 10.8117 8.61929 11.875 10 11.875Z" fill="black"/>
<path opacity="0.2" d="M16.6667 11.875C18.0474 11.875 19.1667 10.8117 19.1667 9.5C19.1667 8.18832 18.0474 7.125 16.6667 7.125C15.286 7.125 14.1667 8.18832 14.1667 9.5C14.1667 10.8117 15.286 11.875 16.6667 11.875Z" fill="black"/>
</svg>
