<svg width="69" height="37" viewBox="0 0 69 37" fill="none" xmlns="http://www.w3.org/2000/svg">
<g filter="url(#filter0_d_206_96)">
<rect x="11" y="7" width="47" height="15" rx="4" fill="white"/>
</g>
<path d="M18.7045 17V11.1818H20.6705C21.1269 11.1818 21.5 11.2642 21.7898 11.429C22.0814 11.5919 22.2973 11.8125 22.4375 12.0909C22.5777 12.3693 22.6477 12.6799 22.6477 13.0227C22.6477 13.3655 22.5777 13.6771 22.4375 13.9574C22.2992 14.2377 22.0852 14.4612 21.7955 14.6278C21.5057 14.7926 21.1345 14.875 20.6818 14.875H19.2727V14.25H20.6591C20.9716 14.25 21.2225 14.196 21.4119 14.0881C21.6013 13.9801 21.7386 13.8343 21.8239 13.6506C21.911 13.465 21.9545 13.2557 21.9545 13.0227C21.9545 12.7898 21.911 12.5814 21.8239 12.3977C21.7386 12.214 21.6004 12.0701 21.4091 11.9659C21.2178 11.8598 20.964 11.8068 20.6477 11.8068H19.4091V17H18.7045ZM23.6918 17V12.6364H24.3395V13.2955H24.3849C24.4645 13.0795 24.6084 12.9044 24.8168 12.7699C25.0251 12.6354 25.2599 12.5682 25.5213 12.5682C25.5705 12.5682 25.6321 12.5691 25.706 12.571C25.7798 12.5729 25.8357 12.5758 25.8736 12.5795V13.2614C25.8509 13.2557 25.7988 13.2472 25.7173 13.2358C25.6378 13.2225 25.5535 13.2159 25.4645 13.2159C25.2524 13.2159 25.063 13.2604 24.8963 13.3494C24.7315 13.4366 24.6009 13.5578 24.5043 13.7131C24.4096 13.8665 24.3622 14.0417 24.3622 14.2386V17H23.6918ZM28.3082 17.0909C27.9143 17.0909 27.5687 16.9972 27.2713 16.8097C26.9759 16.6222 26.7448 16.3598 26.5781 16.0227C26.4134 15.6856 26.331 15.2917 26.331 14.8409C26.331 14.3864 26.4134 13.9896 26.5781 13.6506C26.7448 13.3116 26.9759 13.0483 27.2713 12.8608C27.5687 12.6733 27.9143 12.5795 28.3082 12.5795C28.7022 12.5795 29.0469 12.6733 29.3423 12.8608C29.6397 13.0483 29.8707 13.3116 30.0355 13.6506C30.2022 13.9896 30.2855 14.3864 30.2855 14.8409C30.2855 15.2917 30.2022 15.6856 30.0355 16.0227C29.8707 16.3598 29.6397 16.6222 29.3423 16.8097C29.0469 16.9972 28.7022 17.0909 28.3082 17.0909ZM28.3082 16.4886C28.6075 16.4886 28.8537 16.4119 29.0469 16.2585C29.2401 16.1051 29.383 15.9034 29.4759 15.6534C29.5687 15.4034 29.6151 15.1326 29.6151 14.8409C29.6151 14.5492 29.5687 14.2775 29.4759 14.0256C29.383 13.7737 29.2401 13.5701 29.0469 13.4148C28.8537 13.2595 28.6075 13.1818 28.3082 13.1818C28.009 13.1818 27.7628 13.2595 27.5696 13.4148C27.3764 13.5701 27.2334 13.7737 27.1406 14.0256C27.0478 14.2775 27.0014 14.5492 27.0014 14.8409C27.0014 15.1326 27.0478 15.4034 27.1406 15.6534C27.2334 15.9034 27.3764 16.1051 27.5696 16.2585C27.7628 16.4119 28.009 16.4886 28.3082 16.4886ZM31.3089 17V12.6364H31.9567V13.3182H32.0135C32.1044 13.0852 32.2512 12.9044 32.4538 12.7756C32.6565 12.6449 32.8999 12.5795 33.1839 12.5795C33.4718 12.5795 33.7114 12.6449 33.9027 12.7756C34.0959 12.9044 34.2464 13.0852 34.3544 13.3182H34.3999C34.5116 13.0928 34.6792 12.9138 34.9027 12.7812C35.1262 12.6468 35.3942 12.5795 35.7067 12.5795C36.0968 12.5795 36.416 12.7017 36.6641 12.946C36.9122 13.1884 37.0362 13.5663 37.0362 14.0795V17H36.3658V14.0795C36.3658 13.7576 36.2777 13.5275 36.1016 13.3892C35.9254 13.2509 35.718 13.1818 35.4794 13.1818C35.1726 13.1818 34.9349 13.2746 34.7663 13.4602C34.5978 13.6439 34.5135 13.8769 34.5135 14.1591V17H33.8317V14.0114C33.8317 13.7633 33.7512 13.5634 33.5902 13.4119C33.4292 13.2585 33.2218 13.1818 32.968 13.1818C32.7938 13.1818 32.6309 13.2282 32.4794 13.321C32.3298 13.4138 32.2086 13.5426 32.1158 13.7074C32.0249 13.8703 31.9794 14.0587 31.9794 14.2727V17H31.3089ZM40.0348 17.0909C39.6409 17.0909 39.2952 16.9972 38.9979 16.8097C38.7024 16.6222 38.4714 16.3598 38.3047 16.0227C38.1399 15.6856 38.0575 15.2917 38.0575 14.8409C38.0575 14.3864 38.1399 13.9896 38.3047 13.6506C38.4714 13.3116 38.7024 13.0483 38.9979 12.8608C39.2952 12.6733 39.6409 12.5795 40.0348 12.5795C40.4287 12.5795 40.7734 12.6733 41.0689 12.8608C41.3662 13.0483 41.5973 13.3116 41.7621 13.6506C41.9287 13.9896 42.0121 14.3864 42.0121 14.8409C42.0121 15.2917 41.9287 15.6856 41.7621 16.0227C41.5973 16.3598 41.3662 16.6222 41.0689 16.8097C40.7734 16.9972 40.4287 17.0909 40.0348 17.0909ZM40.0348 16.4886C40.334 16.4886 40.5803 16.4119 40.7734 16.2585C40.9666 16.1051 41.1096 15.9034 41.2024 15.6534C41.2952 15.4034 41.3416 15.1326 41.3416 14.8409C41.3416 14.5492 41.2952 14.2775 41.2024 14.0256C41.1096 13.7737 40.9666 13.5701 40.7734 13.4148C40.5803 13.2595 40.334 13.1818 40.0348 13.1818C39.7356 13.1818 39.4893 13.2595 39.2962 13.4148C39.103 13.5701 38.96 13.7737 38.8672 14.0256C38.7744 14.2775 38.728 14.5492 38.728 14.8409C38.728 15.1326 38.7744 15.4034 38.8672 15.6534C38.96 15.9034 39.103 16.1051 39.2962 16.2585C39.4893 16.4119 39.7356 16.4886 40.0348 16.4886ZM44.9332 12.6364V13.2045H42.6719V12.6364H44.9332ZM43.331 11.5909H44.0014V15.75C44.0014 15.9394 44.0289 16.0814 44.0838 16.1761C44.1406 16.2689 44.2126 16.3314 44.2997 16.3636C44.3887 16.3939 44.4825 16.4091 44.581 16.4091C44.6548 16.4091 44.7154 16.4053 44.7628 16.3977C44.8101 16.3883 44.848 16.3807 44.8764 16.375L45.0128 16.9773C44.9673 16.9943 44.9039 17.0114 44.8224 17.0284C44.741 17.0473 44.6378 17.0568 44.5128 17.0568C44.3234 17.0568 44.1378 17.0161 43.956 16.9347C43.776 16.8532 43.6264 16.7292 43.5071 16.5625C43.3897 16.3958 43.331 16.1856 43.331 15.9318V11.5909ZM47.7244 17.0909C47.304 17.0909 46.9413 16.9981 46.6364 16.8125C46.3333 16.625 46.0994 16.3636 45.9347 16.0284C45.7718 15.6913 45.6903 15.2992 45.6903 14.8523C45.6903 14.4053 45.7718 14.0114 45.9347 13.6705C46.0994 13.3277 46.3286 13.0606 46.6222 12.8693C46.9176 12.6761 47.2623 12.5795 47.6562 12.5795C47.8835 12.5795 48.108 12.6174 48.3295 12.6932C48.5511 12.7689 48.7528 12.892 48.9347 13.0625C49.1165 13.2311 49.2614 13.4545 49.3693 13.733C49.4773 14.0114 49.5312 14.3542 49.5312 14.7614V15.0455H46.1676V14.4659H48.8494C48.8494 14.2197 48.8002 14 48.7017 13.8068C48.6051 13.6136 48.4669 13.4612 48.2869 13.3494C48.1089 13.2377 47.8987 13.1818 47.6562 13.1818C47.3892 13.1818 47.1581 13.2481 46.9631 13.3807C46.7699 13.5114 46.6212 13.6818 46.517 13.892C46.4129 14.1023 46.3608 14.3277 46.3608 14.5682V14.9545C46.3608 15.2841 46.4176 15.5634 46.5312 15.7926C46.6468 16.0199 46.8068 16.1932 47.0114 16.3125C47.2159 16.4299 47.4536 16.4886 47.7244 16.4886C47.9006 16.4886 48.0597 16.464 48.2017 16.4148C48.3456 16.3636 48.4697 16.2879 48.5739 16.1875C48.678 16.0852 48.7585 15.9583 48.8153 15.8068L49.4631 15.9886C49.3949 16.2083 49.2803 16.4015 49.1193 16.5682C48.9583 16.733 48.7595 16.8617 48.5227 16.9545C48.286 17.0455 48.0199 17.0909 47.7244 17.0909Z" fill="#259072"/>
<defs>
<filter id="filter0_d_206_96" x="0.7" y="0.7" width="67.6" height="35.6" filterUnits="userSpaceOnUse" color-interpolation-filters="sRGB">
<feFlood flood-opacity="0" result="BackgroundImageFix"/>
<feColorMatrix in="SourceAlpha" type="matrix" values="0 0 0 0 0 0 0 0 0 0 0 0 0 0 0 0 0 0 127 0" result="hardAlpha"/>
<feOffset dy="4"/>
<feGaussianBlur stdDeviation="5.15"/>
<feComposite in2="hardAlpha" operator="out"/>
<feColorMatrix type="matrix" values="0 0 0 0 0 0 0 0 0 0 0 0 0 0 0 0 0 0 0.2 0"/>
<feBlend mode="normal" in2="BackgroundImageFix" result="effect1_dropShadow_206_96"/>
<feBlend mode="normal" in="SourceGraphic" in2="effect1_dropShadow_206_96" result="shape"/>
</filter>
</defs>
</svg>
