<svg width="21" height="22" viewBox="0 0 21 22" fill="none" xmlns="http://www.w3.org/2000/svg">
<path d="M16.8 0C17.9139 0 18.9822 0.48798 19.7698 1.35659C20.5575 2.2252 21 3.40329 21 4.63169V13.8951C21 15.1235 20.5575 16.3016 19.7698 17.1702C18.9822 18.0388 17.9139 18.5268 16.8 18.5268H11.8398L6.8397 21.8349C6.68912 21.9346 6.51828 21.991 6.34281 21.999C6.16735 22.007 5.99286 21.9664 5.83533 21.8808C5.6778 21.7952 5.54225 21.6674 5.44109 21.5091C5.33993 21.3508 5.2764 21.167 5.2563 20.9746L5.25 20.8426V18.5268H4.2C3.12245 18.5268 2.08611 18.07 1.30535 17.251C0.524585 16.4321 0.0591278 15.3135 0.00525012 14.1266L0 13.8951V4.63169C0 3.40329 0.442499 2.2252 1.23015 1.35659C2.0178 0.48798 3.08609 0 4.2 0H16.8ZM12.6 10.4213H6.3C6.02152 10.4213 5.75445 10.5433 5.55754 10.7604C5.36062 10.9776 5.25 11.2721 5.25 11.5792C5.25 11.8863 5.36062 12.1808 5.55754 12.398C5.75445 12.6151 6.02152 12.7371 6.3 12.7371H12.6C12.8785 12.7371 13.1455 12.6151 13.3425 12.398C13.5394 12.1808 13.65 11.8863 13.65 11.5792C13.65 11.2721 13.5394 10.9776 13.3425 10.7604C13.1455 10.5433 12.8785 10.4213 12.6 10.4213ZM14.7 5.78961H6.3C6.02152 5.78961 5.75445 5.91161 5.55754 6.12876C5.36062 6.34591 5.25 6.64043 5.25 6.94753C5.25 7.25463 5.36062 7.54915 5.55754 7.76631C5.75445 7.98346 6.02152 8.10545 6.3 8.10545H14.7C14.9785 8.10545 15.2455 7.98346 15.4425 7.76631C15.6394 7.54915 15.75 7.25463 15.75 6.94753C15.75 6.64043 15.6394 6.34591 15.4425 6.12876C15.2455 5.91161 14.9785 5.78961 14.7 5.78961Z" fill="black" fill-opacity="0.7"/>
</svg>
