<svg width="76" height="35" viewBox="0 0 76 35" fill="none" xmlns="http://www.w3.org/2000/svg">
<path fill-rule="evenodd" clip-rule="evenodd" d="M8.08389 31.9682C7.85802 32.0373 7.6512 31.8566 7.48424 31.7463C6.28627 30.9549 5.2154 29.9708 4.29157 28.8862C2.84426 27.2901 1.72866 25.4119 0.921745 23.1882C0.164875 21.1001 -0.273127 17.9729 0.189676 15.317C0.343795 14.437 0.479315 13.6044 0.721566 12.8338C0.965589 12.0593 1.2632 11.3578 1.56391 10.6611C2.7672 7.8843 4.71318 5.81298 7.04092 4.05345C8.22162 3.16106 9.51747 2.58222 11.0095 1.99187C13.1123 1.15927 16.1668 0.709315 18.9476 1.1048C19.8453 1.23235 20.7346 1.35458 21.5193 1.59285C22.3351 1.84041 23.0685 2.10348 23.7811 2.3909C24.518 2.68851 25.1442 3.04237 25.7984 3.43343C28.4454 5.01537 30.3941 7.02114 31.8954 9.57519C33.3972 12.1275 34.3936 15.5575 34.0907 19.4858C33.8029 23.2232 32.4809 25.9588 30.6757 28.2883C29.398 30.004 27.6708 31.38 25.7541 32.5452C23.1549 34.1259 19.5685 35.1551 15.3337 34.6958C14.2912 34.5829 13.2509 34.3659 12.3182 34.0528C11.3868 33.7401 10.4143 33.5298 9.81242 32.8995C9.57991 32.656 9.4785 32.187 9.59099 31.8353C9.82172 31.1139 10.994 30.7543 11.4976 30.2835C11.9896 29.9411 12.4843 29.5877 13.0277 29.2193C13.1946 29.1054 13.4117 28.9256 13.5822 28.9088C13.789 28.8889 14.1402 29.0523 14.3798 29.1085C15.1703 29.2932 16.0335 29.4602 16.9081 29.4633C18.1659 29.4677 19.2921 29.3738 20.4113 29.086C21.9042 28.7029 23.2638 27.9686 24.3573 27.1572C24.7293 26.8813 25.0468 26.5567 25.3772 26.2259C27.2559 24.3477 28.8741 21.6652 28.7696 17.9118C28.6841 14.8299 27.6633 12.4499 26.1531 10.728C25.8564 10.3887 25.5233 10.0677 25.2222 9.70761C24.6376 9.01008 23.8271 8.48439 23.0052 8.00078C21.7146 7.24081 20.3426 6.77623 18.6145 6.51538C16.7886 6.23903 14.9883 6.45914 13.4489 6.93655C11.4648 7.5517 9.92048 8.59245 8.59275 9.90779C7.39123 11.2036 6.38768 12.9561 5.86554 15.0292C5.68839 15.7356 5.56793 16.5053 5.55508 17.3131C5.52807 19.0611 5.78493 20.5261 6.26501 21.8361C6.49353 22.4597 6.76944 23.0948 7.08521 23.632C7.40939 24.1838 7.78583 24.6634 8.14899 25.1617C8.20966 27.1134 8.14899 29.2454 8.14899 31.1927C8.14943 31.4536 8.20036 31.729 8.08389 31.9682Z" fill="#259072"/>
<path fill-rule="evenodd" clip-rule="evenodd" d="M8.88108 17.6447C8.80136 16.4193 8.83679 15.0079 8.83679 13.6314C8.83679 13.1434 8.72076 12.5149 9.1034 12.4565C9.37665 12.4149 9.73582 12.4786 10.0782 12.4786C14.359 12.4786 18.58 12.5442 22.9162 12.5451C23.3444 12.5451 24.4844 12.3954 24.557 12.8777C24.6203 13.2975 24.1394 13.5801 23.9587 13.72C23.6531 13.9569 23.3453 14.1655 23.1163 14.3192C21.4591 15.5296 19.7301 16.6682 17.9724 17.7781C15.336 17.6997 12.7106 17.7763 9.94619 17.7333C9.59056 17.7284 9.21677 17.747 8.88108 17.6447ZM10.2115 13.2324C9.98649 13.305 10.0175 13.8936 10.145 14.053C10.5507 14.0619 11.0299 14.1651 11.3873 14.0309C11.4617 13.8701 11.44 13.515 11.409 13.3214C11.1552 13.1469 10.6043 13.2692 10.2115 13.2324ZM13.0281 13.2771C12.8948 13.4348 12.9245 13.8608 13.0056 14.053C13.3058 14.1421 13.8984 14.1159 14.2478 14.053C14.3448 13.8985 14.3497 13.4534 14.2478 13.2993C13.9157 13.1917 13.3966 13.2328 13.0281 13.2771ZM15.8435 13.2993C15.731 13.437 15.7602 13.8817 15.8218 14.053C16.1832 14.1483 16.7275 14.1168 17.0632 14.0752C17.1686 13.9215 17.1504 13.4848 17.0857 13.2993C16.7638 13.2293 16.1646 13.2249 15.8435 13.2993ZM18.6814 13.2993C18.5362 13.4259 18.5782 13.906 18.6371 14.0978C18.9622 14.1664 19.5539 14.1717 19.8785 14.0978C19.9839 13.9605 19.9657 13.5358 19.9011 13.3661C19.6486 13.2001 19.037 13.2891 18.6814 13.2993ZM21.4312 13.3436C21.3134 13.4755 21.3648 13.8763 21.386 14.0747C21.6611 14.2182 22.3652 14.197 22.6721 14.0973C22.7403 13.9259 22.7403 13.5367 22.6721 13.3657C22.3856 13.2545 21.7514 13.2767 21.4312 13.3436Z" fill="#259072"/>
<path fill-rule="evenodd" clip-rule="evenodd" d="M25.1119 13.499C25.3369 13.732 25.2581 14.2129 25.2443 14.5854C25.1961 15.9051 25.3249 17.7484 25.1336 19.0199C25.0047 19.8808 24.7833 20.1908 24.247 20.7267C23.9684 21.0053 23.7045 21.3117 23.4268 21.5252C22.7926 22.0115 22.111 22.4189 21.4972 22.833C18.8772 24.6032 16.2952 26.2856 13.6933 28.0217C12.3793 28.8981 11.0215 29.7064 9.79073 30.6156C9.63573 30.7312 9.47585 30.8676 9.34786 31.0368C9.22917 31.1918 9.16894 31.465 8.94839 31.458C8.80401 30.5704 8.9041 29.6236 8.9041 28.6643C8.9041 28.19 8.9041 27.7064 8.9041 27.2228C8.9041 26.7263 8.8576 26.1417 8.92669 25.7152C9.07018 24.8237 9.66185 24.1098 10.2788 23.6311C10.5826 23.3959 10.9595 23.2254 11.2987 22.988C13.2447 21.6279 15.2793 20.3206 17.1969 18.9751C18.5255 18.0433 19.8342 17.1452 21.1212 16.2705C22.4507 15.3657 23.7474 14.4618 25.0016 13.5433C25.0428 13.5336 25.0566 13.4955 25.1119 13.499Z" fill="#259072"/>
<rect x="9.74333" y="12.9167" width="13.2862" height="1.32862" fill="#259072"/>
<path d="M36.2903 22.9419V21.9405L39.8237 17.0967H36.2938V15.6692H42.0467V16.6706L38.5133 21.5143H42.0431V22.9419H36.2903ZM48.5216 15.6692H50.2759V20.3602C50.2759 20.9024 50.1469 21.3747 49.8888 21.7771C49.6308 22.1772 49.2709 22.4873 48.8093 22.7075C48.3476 22.9253 47.8114 23.0342 47.2006 23.0342C46.5827 23.0342 46.0429 22.9253 45.5813 22.7075C45.1196 22.4873 44.761 22.1772 44.5053 21.7771C44.2496 21.3747 44.1218 20.9024 44.1218 20.3602V15.6692H45.8796V20.2075C45.8796 20.4585 45.934 20.6822 46.0429 20.8787C46.1542 21.0752 46.3093 21.2291 46.5081 21.3403C46.707 21.4516 46.9378 21.5072 47.2006 21.5072C47.4634 21.5072 47.693 21.4516 47.8895 21.3403C48.0884 21.2291 48.2435 21.0752 48.3547 20.8787C48.466 20.6822 48.5216 20.4585 48.5216 20.2075V15.6692ZM56.7775 15.6692H58.5318V20.3602C58.5318 20.9024 58.4027 21.3747 58.1447 21.7771C57.8866 22.1772 57.5268 22.4873 57.0651 22.7075C56.6035 22.9253 56.0673 23.0342 55.4565 23.0342C54.8386 23.0342 54.2988 22.9253 53.8372 22.7075C53.3755 22.4873 53.0168 22.1772 52.7612 21.7771C52.5055 21.3747 52.3776 20.9024 52.3776 20.3602V15.6692H54.1354V20.2075C54.1354 20.4585 54.1899 20.6822 54.2988 20.8787C54.4101 21.0752 54.5651 21.2291 54.764 21.3403C54.9629 21.4516 55.1937 21.5072 55.4565 21.5072C55.7193 21.5072 55.9489 21.4516 56.1454 21.3403C56.3443 21.2291 56.4993 21.0752 56.6106 20.8787C56.7219 20.6822 56.7775 20.4585 56.7775 20.2075V15.6692ZM60.6335 15.6692H62.8103L64.6569 20.172H64.7422L66.5888 15.6692H68.7656V22.9419H67.0539V18.4746H66.9936L65.2464 22.8957H64.1527L62.4055 18.4497H62.3451V22.9419H60.6335V15.6692Z" fill="black"/>
</svg>
