<svg width="23" height="22" viewBox="0 0 23 22" fill="none" xmlns="http://www.w3.org/2000/svg">
<path d="M11.5 0C5.14805 0 0 4.92422 0 11C0 17.0758 5.14805 22 11.5 22C17.852 22 23 17.0758 23 11C23 4.92422 17.852 0 11.5 0ZM18.2068 11.9152C18.2068 12.4223 17.7801 12.8305 17.25 12.8305H13.4182V16.5C13.4182 17.007 12.9914 17.4152 12.4613 17.4152H10.5432C10.0131 17.4152 9.58633 17.0027 9.58633 16.5V12.8348H5.75C5.21992 12.8348 4.79316 12.4223 4.79316 11.9195V10.0848C4.79316 9.57773 5.21992 9.16953 5.75 9.16953H9.58184V5.5C9.58184 4.99297 10.0086 4.58477 10.5387 4.58477H12.4568C12.9869 4.58477 13.4137 4.99727 13.4137 5.5V9.16523H17.25C17.7801 9.16523 18.2068 9.57773 18.2068 10.0805V11.9152Z" fill="black" fill-opacity="0.7"/>
</svg>
