<svg width="69" height="37" viewBox="0 0 69 37" fill="none" xmlns="http://www.w3.org/2000/svg">
<g filter="url(#filter0_d_207_534)">
<rect x="11" y="7" width="47" height="15" rx="4" fill="white"/>
</g>
<path d="M18.7045 17V11.1818H20.6705C21.1269 11.1818 21.5 11.2642 21.7898 11.429C22.0814 11.5919 22.2973 11.8125 22.4375 12.0909C22.5777 12.3693 22.6477 12.6799 22.6477 13.0227C22.6477 13.3655 22.5777 13.6771 22.4375 13.9574C22.2992 14.2377 22.0852 14.4612 21.7955 14.6278C21.5057 14.7926 21.1345 14.875 20.6818 14.875H19.2727V14.25H20.6591C20.9716 14.25 21.2225 14.196 21.4119 14.0881C21.6013 13.9801 21.7386 13.8343 21.8239 13.6506C21.911 13.465 21.9545 13.2557 21.9545 13.0227C21.9545 12.7898 21.911 12.5814 21.8239 12.3977C21.7386 12.214 21.6004 12.0701 21.4091 11.9659C21.2178 11.8598 20.964 11.8068 20.6477 11.8068H19.4091V17H18.7045ZM26.4418 15.2159V12.6364H27.1122V17H26.4418V16.2614H26.3963C26.294 16.483 26.1349 16.6714 25.919 16.8267C25.7031 16.9801 25.4304 17.0568 25.1009 17.0568C24.8281 17.0568 24.5857 16.9972 24.3736 16.8778C24.1615 16.7566 23.9948 16.5748 23.8736 16.3324C23.7524 16.0881 23.6918 15.7803 23.6918 15.4091V12.6364H24.3622V15.3636C24.3622 15.6818 24.4512 15.9356 24.6293 16.125C24.8092 16.3144 25.0384 16.4091 25.3168 16.4091C25.4834 16.4091 25.6529 16.3665 25.8253 16.2812C25.9995 16.196 26.1454 16.0653 26.2628 15.8892C26.3821 15.7131 26.4418 15.4886 26.4418 15.2159ZM28.3402 17V12.6364H28.9879V13.2955H29.0334C29.1129 13.0795 29.2569 12.9044 29.4652 12.7699C29.6735 12.6354 29.9084 12.5682 30.1697 12.5682C30.219 12.5682 30.2805 12.5691 30.3544 12.571C30.4283 12.5729 30.4841 12.5758 30.522 12.5795V13.2614C30.4993 13.2557 30.4472 13.2472 30.3658 13.2358C30.2862 13.2225 30.2019 13.2159 30.1129 13.2159C29.9008 13.2159 29.7114 13.2604 29.5447 13.3494C29.38 13.4366 29.2493 13.5578 29.1527 13.7131C29.058 13.8665 29.0107 14.0417 29.0107 14.2386V17H28.3402ZM32.9567 17.0909C32.5476 17.0909 32.1953 16.9943 31.8999 16.8011C31.6044 16.608 31.3771 16.3419 31.218 16.0028C31.0589 15.6638 30.9794 15.2765 30.9794 14.8409C30.9794 14.3977 31.0608 14.0066 31.2237 13.6676C31.3885 13.3267 31.6177 13.0606 31.9112 12.8693C32.2067 12.6761 32.5514 12.5795 32.9453 12.5795C33.2521 12.5795 33.5286 12.6364 33.7749 12.75C34.0211 12.8636 34.2228 13.0227 34.38 13.2273C34.5372 13.4318 34.6347 13.6705 34.6726 13.9432H34.0021C33.951 13.7443 33.8374 13.5682 33.6612 13.4148C33.487 13.2595 33.2521 13.1818 32.9567 13.1818C32.6953 13.1818 32.4661 13.25 32.2692 13.3864C32.0741 13.5208 31.9216 13.7112 31.8118 13.9574C31.7038 14.2017 31.6499 14.4886 31.6499 14.8182C31.6499 15.1553 31.7029 15.4489 31.8089 15.6989C31.9169 15.9489 32.0684 16.143 32.2635 16.2812C32.4605 16.4195 32.6915 16.4886 32.9567 16.4886C33.1309 16.4886 33.2891 16.4583 33.4311 16.3977C33.5732 16.3371 33.6934 16.25 33.7919 16.1364C33.8904 16.0227 33.9605 15.8864 34.0021 15.7273H34.6726C34.6347 15.9848 34.541 16.2169 34.3913 16.4233C34.2436 16.6278 34.0476 16.7907 33.8033 16.9119C33.5608 17.0312 33.2786 17.0909 32.9567 17.0909ZM36.3232 14.375V17H35.6527V11.1818H36.3232V13.3182H36.38C36.4822 13.0928 36.6357 12.9138 36.8402 12.7812C37.0466 12.6468 37.3213 12.5795 37.6641 12.5795C37.9614 12.5795 38.2218 12.6392 38.4453 12.7585C38.6688 12.8759 38.8421 13.0568 38.9652 13.3011C39.0902 13.5436 39.1527 13.8523 39.1527 14.2273V17H38.4822V14.2727C38.4822 13.9261 38.3923 13.6581 38.2124 13.4688C38.0343 13.2775 37.7872 13.1818 37.4709 13.1818C37.2512 13.1818 37.0542 13.2282 36.88 13.321C36.7076 13.4138 36.5713 13.5492 36.4709 13.7273C36.3724 13.9053 36.3232 14.1212 36.3232 14.375ZM41.6634 17.1023C41.3868 17.1023 41.1359 17.0502 40.9105 16.946C40.6851 16.84 40.5062 16.6875 40.3736 16.4886C40.241 16.2879 40.1747 16.0455 40.1747 15.7614C40.1747 15.5114 40.224 15.3087 40.3224 15.1534C40.4209 14.9962 40.5526 14.8731 40.7173 14.7841C40.8821 14.6951 41.0639 14.6288 41.2628 14.5852C41.4635 14.5398 41.6652 14.5038 41.8679 14.4773C42.133 14.4432 42.348 14.4176 42.5128 14.4006C42.6795 14.3816 42.8007 14.3504 42.8764 14.3068C42.9541 14.2633 42.9929 14.1875 42.9929 14.0795V14.0568C42.9929 13.7765 42.9162 13.5587 42.7628 13.4034C42.6113 13.2481 42.3812 13.1705 42.0724 13.1705C41.7524 13.1705 41.5014 13.2405 41.3196 13.3807C41.1378 13.5208 41.0099 13.6705 40.9361 13.8295L40.2997 13.6023C40.4134 13.3371 40.5649 13.1307 40.7543 12.983C40.9455 12.8333 41.1539 12.7292 41.3793 12.6705C41.6065 12.6098 41.83 12.5795 42.0497 12.5795C42.1899 12.5795 42.3509 12.5966 42.5327 12.6307C42.7164 12.6629 42.8935 12.7301 43.0639 12.8324C43.2363 12.9347 43.3793 13.089 43.4929 13.2955C43.6065 13.5019 43.6634 13.7784 43.6634 14.125V17H42.9929V16.4091H42.9588C42.9134 16.5038 42.8376 16.6051 42.7315 16.7131C42.6255 16.821 42.4844 16.9129 42.3082 16.9886C42.1321 17.0644 41.9171 17.1023 41.6634 17.1023ZM41.7656 16.5C42.0308 16.5 42.2543 16.4479 42.4361 16.3438C42.6198 16.2396 42.758 16.1051 42.8509 15.9403C42.9455 15.7756 42.9929 15.6023 42.9929 15.4205V14.8068C42.9645 14.8409 42.902 14.8722 42.8054 14.9006C42.7107 14.9271 42.6009 14.9508 42.4759 14.9716C42.3527 14.9905 42.2325 15.0076 42.1151 15.0227C41.9995 15.036 41.9058 15.0473 41.8338 15.0568C41.6596 15.0795 41.4967 15.1165 41.3452 15.1676C41.1955 15.2169 41.0743 15.2917 40.9815 15.392C40.8906 15.4905 40.8452 15.625 40.8452 15.7955C40.8452 16.0284 40.9313 16.2045 41.1037 16.3239C41.2779 16.4413 41.4986 16.5 41.7656 16.5ZM47.978 13.6136L47.3757 13.7841C47.3378 13.6837 47.282 13.5862 47.2081 13.4915C47.1361 13.3949 47.0376 13.3153 46.9126 13.2528C46.7876 13.1903 46.6276 13.1591 46.4325 13.1591C46.1655 13.1591 45.9429 13.2206 45.7649 13.3438C45.5888 13.465 45.5007 13.6193 45.5007 13.8068C45.5007 13.9735 45.5613 14.1051 45.6825 14.2017C45.8037 14.2983 45.9931 14.3788 46.2507 14.4432L46.8984 14.6023C47.2886 14.697 47.5793 14.8419 47.7706 15.0369C47.9619 15.2301 48.0575 15.4792 48.0575 15.7841C48.0575 16.0341 47.9856 16.2576 47.8416 16.4545C47.6996 16.6515 47.5007 16.8068 47.245 16.9205C46.9893 17.0341 46.692 17.0909 46.353 17.0909C45.9079 17.0909 45.5395 16.9943 45.2479 16.8011C44.9562 16.608 44.7715 16.3258 44.6939 15.9545L45.3303 15.7955C45.3909 16.0303 45.5054 16.2064 45.674 16.3239C45.8445 16.4413 46.067 16.5 46.3416 16.5C46.6541 16.5 46.9022 16.4337 47.0859 16.3011C47.2715 16.1667 47.3643 16.0057 47.3643 15.8182C47.3643 15.6667 47.3113 15.5398 47.2053 15.4375C47.0992 15.3333 46.9363 15.2557 46.7166 15.2045L45.9893 15.0341C45.5897 14.9394 45.2962 14.7926 45.1087 14.5938C44.9231 14.393 44.8303 14.142 44.8303 13.8409C44.8303 13.5947 44.8994 13.3769 45.0376 13.1875C45.1778 12.9981 45.3681 12.8494 45.6087 12.7415C45.8511 12.6335 46.1257 12.5795 46.4325 12.5795C46.8643 12.5795 47.2034 12.6742 47.4496 12.8636C47.6977 13.053 47.8738 13.303 47.978 13.6136ZM50.8963 17.0909C50.4759 17.0909 50.1132 16.9981 49.8082 16.8125C49.5052 16.625 49.2713 16.3636 49.1065 16.0284C48.9437 15.6913 48.8622 15.2992 48.8622 14.8523C48.8622 14.4053 48.9437 14.0114 49.1065 13.6705C49.2713 13.3277 49.5005 13.0606 49.794 12.8693C50.0895 12.6761 50.4342 12.5795 50.8281 12.5795C51.0554 12.5795 51.2798 12.6174 51.5014 12.6932C51.723 12.7689 51.9247 12.892 52.1065 13.0625C52.2884 13.2311 52.4332 13.4545 52.5412 13.733C52.6491 14.0114 52.7031 14.3542 52.7031 14.7614V15.0455H49.3395V14.4659H52.0213C52.0213 14.2197 51.9721 14 51.8736 13.8068C51.777 13.6136 51.6387 13.4612 51.4588 13.3494C51.2808 13.2377 51.0705 13.1818 50.8281 13.1818C50.5611 13.1818 50.33 13.2481 50.1349 13.3807C49.9418 13.5114 49.7931 13.6818 49.6889 13.892C49.5848 14.1023 49.5327 14.3277 49.5327 14.5682V14.9545C49.5327 15.2841 49.5895 15.5634 49.7031 15.7926C49.8187 16.0199 49.9787 16.1932 50.1832 16.3125C50.3878 16.4299 50.6255 16.4886 50.8963 16.4886C51.0724 16.4886 51.2315 16.464 51.3736 16.4148C51.5175 16.3636 51.6416 16.2879 51.7457 16.1875C51.8499 16.0852 51.9304 15.9583 51.9872 15.8068L52.6349 15.9886C52.5668 16.2083 52.4522 16.4015 52.2912 16.5682C52.1302 16.733 51.9313 16.8617 51.6946 16.9545C51.4579 17.0455 51.1918 17.0909 50.8963 17.0909Z" fill="#259072"/>
<defs>
<filter id="filter0_d_207_534" x="0.7" y="0.7" width="67.6" height="35.6" filterUnits="userSpaceOnUse" color-interpolation-filters="sRGB">
<feFlood flood-opacity="0" result="BackgroundImageFix"/>
<feColorMatrix in="SourceAlpha" type="matrix" values="0 0 0 0 0 0 0 0 0 0 0 0 0 0 0 0 0 0 127 0" result="hardAlpha"/>
<feOffset dy="4"/>
<feGaussianBlur stdDeviation="5.15"/>
<feComposite in2="hardAlpha" operator="out"/>
<feColorMatrix type="matrix" values="0 0 0 0 0 0 0 0 0 0 0 0 0 0 0 0 0 0 0.2 0"/>
<feBlend mode="normal" in2="BackgroundImageFix" result="effect1_dropShadow_207_534"/>
<feBlend mode="normal" in="SourceGraphic" in2="effect1_dropShadow_207_534" result="shape"/>
</filter>
</defs>
</svg>
