<svg width="22" height="22" viewBox="0 0 22 22" fill="none" xmlns="http://www.w3.org/2000/svg">
<path d="M10.0486 2.19952C10.3394 2.16734 10.6054 2.02096 10.7883 1.79259C10.9712 1.56422 11.0558 1.27256 11.0236 0.981775C10.9915 0.690988 10.8451 0.424895 10.6167 0.242033C10.3883 0.0591702 10.0967 -0.0254826 9.80591 0.00669696C4.28857 0.616672 0 5.29131 0 10.9697C0 17.0617 4.93825 22 11.0303 22C16.7064 22 21.38 17.7125 21.9932 12.1996C22.0256 11.9088 21.9411 11.6171 21.7583 11.3886C21.5755 11.1601 21.3095 11.0136 21.0187 10.9813C20.7279 10.949 20.4362 11.0335 20.2077 11.2162C19.9793 11.399 19.8328 11.665 19.8004 11.9558C19.5464 14.1951 18.4453 16.2523 16.723 17.7057C15.0007 19.1591 12.7876 19.8986 10.5375 19.7725C8.28742 19.6464 6.17082 18.6643 4.62169 17.0275C3.07256 15.3907 2.20828 13.2233 2.20605 10.9697C2.20587 8.79923 3.00563 6.70482 4.45243 5.08688C5.89923 3.46895 7.89157 2.44098 10.0486 2.19952ZM14.0823 0.370697C13.8036 0.30036 13.5083 0.341651 13.2596 0.485775C13.0108 0.629899 12.8281 0.865463 12.7505 1.14229C12.6728 1.41911 12.7063 1.71532 12.8438 1.96781C12.9813 2.22029 13.212 2.40911 13.4867 2.49403C13.8044 2.58374 14.114 2.69037 14.4155 2.81391C14.6863 2.92463 14.9901 2.92321 15.26 2.80996C15.5298 2.6967 15.7436 2.48089 15.8544 2.21C15.9651 1.9391 15.9637 1.63532 15.8504 1.36547C15.7371 1.09563 15.5213 0.881823 15.2504 0.771096C14.8689 0.615923 14.4789 0.482247 14.0823 0.370697ZM16.9304 2.90766C17.0283 2.80098 17.1464 2.71463 17.2777 2.65357C17.4091 2.5925 17.5512 2.55791 17.6959 2.55176C17.8407 2.54562 17.9852 2.56804 18.1212 2.61775C18.2573 2.66746 18.3822 2.74348 18.4889 2.84148C18.7228 3.05547 18.9467 3.27902 19.1607 3.51212C19.3584 3.72773 19.4624 4.01306 19.4498 4.30535C19.4372 4.59764 19.309 4.87295 19.0934 5.0707C18.8778 5.26846 18.5925 5.37247 18.3002 5.35985C18.0079 5.34724 17.7326 5.21902 17.5348 5.00342C17.3639 4.81713 17.185 4.63828 16.9987 4.46735C16.8919 4.36951 16.8054 4.25158 16.7441 4.1203C16.6829 3.98902 16.6481 3.84695 16.6417 3.70222C16.6354 3.55749 16.6576 3.41293 16.7071 3.27678C16.7566 3.14064 16.8325 3.01449 16.9304 2.90766ZM9.92724 4.35153C10.2198 4.35153 10.5003 4.46774 10.7072 4.6746C10.9141 4.88146 11.0303 5.16202 11.0303 5.45456V10.9697H14.3393C14.6319 10.9697 14.9124 11.0859 15.1193 11.2928C15.3262 11.4996 15.4424 11.7802 15.4424 12.0727C15.4424 12.3653 15.3262 12.6458 15.1193 12.8527C14.9124 13.0596 14.6319 13.1758 14.3393 13.1758H9.92724C9.6347 13.1758 9.35414 13.0596 9.14728 12.8527C8.94042 12.6458 8.82421 12.3653 8.82421 12.0727V5.45456C8.82421 5.16202 8.94042 4.88146 9.14728 4.6746C9.35414 4.46774 9.6347 4.35153 9.92724 4.35153ZM19.7883 6.14175C20.059 6.03105 20.3627 6.03242 20.6324 6.14557C20.9021 6.25872 21.1159 6.47437 21.2266 6.7451C21.3827 7.12809 21.5171 7.51954 21.6292 7.91762C21.6727 8.05835 21.6876 8.20636 21.673 8.35293C21.6584 8.4995 21.6145 8.64166 21.5441 8.77101C21.4736 8.90037 21.378 9.0143 21.2628 9.10609C21.1476 9.19788 21.0152 9.26567 20.8734 9.30545C20.7315 9.34523 20.5832 9.35621 20.437 9.33773C20.2909 9.31925 20.15 9.27169 20.0225 9.19785C19.895 9.12401 19.7837 9.02539 19.695 8.90782C19.6062 8.79024 19.542 8.65608 19.5059 8.51326C19.4164 8.19646 19.3093 7.88492 19.1849 7.5801C19.0742 7.30949 19.0754 7.00597 19.1883 6.73626C19.3013 6.46654 19.5167 6.25271 19.7872 6.14175" fill="black" fill-opacity="0.7"/>
</svg>
