<svg width="14" height="14" viewBox="0 0 14 14" fill="none" xmlns="http://www.w3.org/2000/svg">
<path fill-rule="evenodd" clip-rule="evenodd" d="M3.18908 2.56208C3.27094 2.64419 3.31685 2.75543 3.31674 2.87137C3.31663 2.9873 3.27051 3.09846 3.1885 3.18041C2.68546 3.68106 2.28648 4.27633 2.01457 4.93189C1.74265 5.58746 1.60317 6.29036 1.60417 7.00008C1.60317 7.71792 1.74589 8.42869 2.0239 9.09051C2.30191 9.75233 2.70959 10.3518 3.22292 10.8536C3.2649 10.8936 3.2985 10.9415 3.32179 10.9946C3.34508 11.0477 3.35758 11.1049 3.35857 11.1629C3.35955 11.2208 3.34901 11.2784 3.32755 11.3323C3.30608 11.3862 3.27413 11.4352 3.23354 11.4766C3.19295 11.518 3.14453 11.5509 3.09111 11.5735C3.03769 11.596 2.98032 11.6077 2.92234 11.6078C2.86436 11.608 2.80693 11.5966 2.75338 11.5744C2.69983 11.5522 2.65124 11.5195 2.61042 11.4783C2.014 10.8951 1.5403 10.1984 1.21721 9.42933C0.894129 8.66024 0.72819 7.83427 0.729168 7.00008C0.729168 5.26641 1.43325 3.69608 2.57017 2.56149C2.65228 2.47964 2.76352 2.43373 2.87946 2.43384C2.99539 2.43395 3.10713 2.48007 3.18908 2.56208ZM10.8593 2.60408C10.9422 2.52299 11.0539 2.47813 11.1698 2.47933C11.2858 2.48053 11.3965 2.52771 11.4777 2.61049C12.6285 3.78155 13.2726 5.35822 13.2708 7.00008C13.2708 8.72908 12.5708 10.2959 11.4386 11.4299C11.3566 11.5121 11.2453 11.5583 11.1292 11.5584C11.0132 11.5585 10.9018 11.5125 10.8197 11.4305C10.7375 11.3485 10.6913 11.2372 10.6912 11.1212C10.6911 11.0051 10.7371 10.8937 10.8191 10.8116C11.3198 10.3113 11.7168 9.71705 11.9874 9.06299C12.2579 8.40893 12.3968 7.70789 12.3958 7.00008C12.3977 5.58735 11.8437 4.2306 10.8535 3.223C10.7723 3.14019 10.7274 3.02856 10.7285 2.91262C10.7296 2.79668 10.7766 2.68533 10.8593 2.60408ZM4.84633 4.36808C4.92561 4.45279 4.968 4.56552 4.96417 4.68147C4.96034 4.79743 4.91061 4.90712 4.82592 4.98641C4.27233 5.50441 3.93692 6.21258 3.93692 6.98958C3.93692 7.77591 4.2805 8.49166 4.84575 9.01141C4.93115 9.09 4.98183 9.1993 4.98665 9.31526C4.99146 9.43122 4.95001 9.54435 4.87142 9.62975C4.79283 9.71515 4.68353 9.76583 4.56757 9.77064C4.45161 9.77545 4.33848 9.734 4.25308 9.65541C3.52275 8.984 3.06192 8.03958 3.06192 6.98958C3.06192 5.95183 3.51167 5.01791 4.22859 4.34708C4.31337 4.26787 4.42614 4.22559 4.5421 4.22953C4.65806 4.23346 4.7677 4.2833 4.84692 4.36808M9.18342 4.39025C9.26358 4.30643 9.37374 4.25788 9.48969 4.25525C9.60563 4.25263 9.71788 4.29615 9.80175 4.37624C10.5 5.04416 10.9375 5.967 10.9375 6.98958C10.9375 8.025 10.4901 8.95716 9.77667 9.62683C9.73502 9.66729 9.68573 9.69905 9.63168 9.72027C9.57763 9.74148 9.5199 9.75173 9.46185 9.7504C9.4038 9.74908 9.34659 9.73621 9.29356 9.71255C9.24054 9.6889 9.19275 9.65492 9.15299 9.6126C9.11323 9.57028 9.08229 9.52048 9.06197 9.46608C9.04166 9.41168 9.03238 9.35379 9.03467 9.29577C9.03695 9.23775 9.05077 9.18077 9.07531 9.12814C9.09985 9.07551 9.13461 9.0283 9.17758 8.98925C9.72884 8.47183 10.0625 7.76425 10.0625 6.98958C10.0625 6.22366 9.73642 5.52425 9.19683 5.00858C9.1131 4.92834 9.06465 4.81814 9.06214 4.70219C9.05962 4.58624 9.10324 4.47404 9.18342 4.39025Z" fill="#259072"/>
<path d="M7.966 6.09635C8.48867 6.48018 8.75 6.6721 8.75 7.00051C8.75 7.32835 8.48867 7.51968 7.966 7.90351C7.82966 8.00442 7.68997 8.10073 7.54717 8.19226C7.43225 8.26518 7.30159 8.34043 7.16625 8.41451C6.64475 8.70035 6.38459 8.84268 6.15067 8.6846C5.91675 8.52651 5.89575 8.19576 5.85317 7.53485C5.8415 7.34818 5.83334 7.16443 5.83334 6.99993C5.83334 6.83543 5.84092 6.65226 5.85317 6.46501C5.89517 5.8041 5.91675 5.47335 6.15067 5.31585C6.384 5.15776 6.64475 5.3001 7.16567 5.58535C7.30159 5.65943 7.43225 5.73468 7.54717 5.8076C7.679 5.89101 7.82192 5.99076 7.966 6.09635Z" fill="#259072"/>
</svg>
